<svg xmlns="http://www.w3.org/2000/svg" width="100%" height="100%" viewBox="0 0 800 600" fill="none">
    <rect width="800" height="600" fill="#f1f5f9" />
    <path
        d="M400 300C400 300 400 200 500 200C600 200 600 300 600 300C600 400 500 400 500 400C400 400 400 300 400 300Z"
        fill="#e2e8f0" />
    <path
        d="M200 300C200 300 200 200 300 200C400 200 400 300 400 300C400 400 300 400 300 400C200 400 200 300 200 300Z"
        fill="#cbd5e1" />
    <path
        d="M300 500C300 500 300 400 400 400C500 400 500 500 500 500C500 600 400 600 400 600C300 600 300 500 300 500Z"
        fill="#94a3b8" />
    <path
        d="M100 500C100 500 100 400 200 400C300 400 300 500 300 500C300 600 200 600 200 600C100 600 100 500 100 500Z"
        fill="#64748b" />
    <path
        d="M500 500C500 500 500 400 600 400C700 400 700 500 700 500C700 600 600 600 600 600C500 600 500 500 500 500Z"
        fill="#475569" />
    <path
        d="M400 100C400 100 400 0 500 0C600 0 600 100 600 100C600 200 500 200 500 200C400 200 400 100 400 100Z"
        fill="#334155" />
    <path
        d="M200 100C200 100 200 0 300 0C400 0 400 100 400 100C400 200 300 200 300 200C200 200 200 100 200 100Z"
        fill="#1e293b" />
    <text x="400" y="300" font-size="24" text-anchor="middle" fill="#0f172a">Rerit</text>
</svg> 